# xmcd CD database file
#
# Track frame offsets:
#	150
#	22725
#	37125
#
# Disc length: 817 seconds
#
# Revision: 0
# Processed by: cddbd v1.5PL3 Copyright (c) Steve Scherf et al.
# Submitted via: CDex 1.50beta10
#
DISCID=1a032f03
DTITLE=Sparks Go Go - カリビアン・ビーチホテル
DYEAR=1998
DGENRE=Rock
TTITLE0=カリビアン・ビーチホテル
TTITLE1=流されて
TTITLE2=生活
EXTD=YEAR: 1998/4/22
EXTT0=
EXTT1=
EXTT2=
PLAYORDER=
